<svg width="178" height="152" viewBox="0 0 178 152" fill="none" xmlns="http://www.w3.org/2000/svg">
<g id="trapinch">
<g id="back_legs">
<path id="backleg1" d="M65.9013 144.274C67.9115 145.35 70.503 146.529 74.0496 146.89C77.6563 147.256 82.3249 146.782 88.4324 144.372C85.4377 134.526 91.4054 126.237 94.5284 121.9C94.6929 121.671 94.8496 121.454 94.9966 121.247C94.8354 113.933 89.0464 108.658 82.2563 110.308C79.3355 111.017 77.5704 112.011 76.0549 113.337C74.9444 114.309 73.98 115.44 72.7907 116.834C72.2991 117.411 71.7691 118.032 71.1744 118.706C66.0394 126.929 63.5267 135.005 65.9013 144.274Z" fill="#D6692A" stroke="black" stroke-width="2"/>
<path id="backleg2" d="M95.8963 136.345C97.9061 137.392 100.499 138.541 104.047 138.892C107.655 139.25 112.322 138.788 118.424 136.445C115.447 126.842 121.419 118.761 124.535 114.544C124.697 114.325 124.851 114.117 124.996 113.919C124.827 106.844 119.068 101.686 112.251 103.3C109.326 103.993 107.56 104.962 106.045 106.254C104.935 107.2 103.972 108.301 102.783 109.659C102.292 110.221 101.762 110.826 101.167 111.483C96.0373 119.487 93.5326 127.338 95.8963 136.345Z" fill="#D6692A" stroke="black" stroke-width="2"/>
</g>
<g id="body">
<g id="torso">
<path d="M126.858 134.225C149.13 125.822 159.115 112.178 158.465 99.4508C158.126 95.9916 138 93.2778 138 111.622C114.8 99.6218 109.5 123.622 113 129.622C107.667 130.788 94.0705 133.646 81.2705 125.246C93.2103 135.193 116.046 138.304 126.858 134.225Z" fill="url(#paint0_linear_8_51)"/>
<path d="M74.7064 116.483C75.9691 119.83 78.2774 122.753 81.2705 125.246C94.0705 133.646 107.667 130.788 113 129.622C109.5 123.622 114.8 99.6218 138 111.622C138 93.2778 158.126 95.9916 158.465 99.4508C158.343 97.0587 157.845 94.699 156.983 92.4126C149.957 73.7907 131.3 67.6201 107.559 72.5417C81.4185 77.9607 67.6809 97.8613 74.7064 116.483Z" fill="url(#paint1_radial_8_51)"/>
<path d="M126.858 134.225C113.336 139.326 81.0062 133.182 74.7064 116.483M126.858 134.225C149.13 125.822 159.115 112.178 158.465 99.4508M126.858 134.225C116.046 138.304 93.2103 135.193 81.2705 125.246M74.7064 116.483C67.6809 97.8613 81.4185 77.9607 107.559 72.5417C131.3 67.6201 149.957 73.7907 156.983 92.4126C157.845 94.699 158.343 97.0587 158.465 99.4508M74.7064 116.483C75.9691 119.83 78.2774 122.753 81.2705 125.246M158.47 99.5393C158.47 99.5098 158.468 99.4803 158.465 99.4508M81.2705 125.246C94.0705 133.646 107.667 130.788 113 129.622C109.5 123.622 114.8 99.6218 138 111.622C138 93.2778 158.126 95.9916 158.465 99.4508" stroke="black" stroke-width="2"/>
</g>
<path id="neck" d="M104.802 82.0374C109.829 86.134 111.81 90.7533 111.435 95.4465C111.055 100.196 108.246 105.227 103.253 110.042C100.545 112.654 94.9671 115.494 88.9811 116.814C82.9701 118.139 76.9127 117.853 73.0282 114.687C68.5423 111.031 66.4134 105.941 66.7157 100.61C67.0187 95.2691 69.7715 89.6096 75.2051 84.8998C80.106 80.6518 86.0357 78.7222 91.5042 78.4749C96.9997 78.2264 101.909 79.6792 104.802 82.0374Z" fill="#D6692A" stroke="black" stroke-width="2"/>
<path id="torsoline" d="M88.4908 117.5C87.5 122 92.5 129 98.5 131" stroke="black" stroke-width="2"/>
</g>
<g id="head">
<path id="bighead" d="M115.081 50.1007C120.958 64.7486 120.204 76.9486 114.46 86.406C108.696 95.8968 97.7872 102.825 82.9525 106.638C74.7267 108.753 60.6581 107.793 47.4059 103.265C34.1467 98.7354 22.023 90.7446 17.3425 79.0789C12.0513 65.891 13.0627 52.5909 19.2544 41.8298C25.4471 31.0671 36.8728 22.7582 52.5685 19.6724C66.781 16.8781 80.6643 20.1161 91.8908 26.2673C103.136 32.4288 111.612 41.4547 115.081 50.1007Z" fill="url(#paint2_radial_8_51)" stroke="black" stroke-width="2"/>
<path id="mouth" d="M14 65L19.1507 51.36L33.5763 59.1157L47.9439 42.5576L59.1064 62.3225L78.3292 51.1517L84.9292 72.9729L98.8505 67.3874" stroke="black" stroke-width="2"/>
<path id="eye" d="M108.627 52.8133C109.987 56.2035 108.831 59.8581 106.045 60.9759C103.259 62.0938 99.8973 60.2517 98.5371 56.8614C97.1768 53.4712 98.3328 49.8166 101.119 48.6988C103.905 47.5809 107.266 49.423 108.627 52.8133Z" fill="black"/>
<path id="eyeshine" d="M102.938 48.6542L105.144 52.7896L108.633 53.711L105.576 56.053L104.452 60.0762L102.318 56.4847L98.7565 55.0194L101.886 53.2212L102.938 48.6542Z" fill="#D9D9D9"/>
</g>
<g id="front_legs">
<g clip-path="url(#paint3_diamond_8_51_clip_path)" data-figma-skip-parse="true"><g transform="matrix(0.0035 0.029 -0.0244211 0.00294737 131 126.5)"><rect x="0" y="0" width="1012.6" height="837.478" fill="url(#paint3_diamond_8_51)" opacity="1" shape-rendering="crispEdges"/><rect x="0" y="0" width="1012.6" height="837.478" transform="scale(1 -1)" fill="url(#paint3_diamond_8_51)" opacity="1" shape-rendering="crispEdges"/><rect x="0" y="0" width="1012.6" height="837.478" transform="scale(-1 1)" fill="url(#paint3_diamond_8_51)" opacity="1" shape-rendering="crispEdges"/><rect x="0" y="0" width="1012.6" height="837.478" transform="scale(-1)" fill="url(#paint3_diamond_8_51)" opacity="1" shape-rendering="crispEdges"/></g></g><path id="frontleg1" d="M146.104 148.345C144.094 149.392 141.501 150.541 137.953 150.892C134.345 151.25 129.678 150.788 123.576 148.445C126.553 138.842 120.581 130.761 117.465 126.544C117.303 126.325 117.149 126.117 117.004 125.919C117.173 118.844 122.932 113.686 129.749 115.3C132.674 115.993 134.44 116.962 135.955 118.254C137.065 119.2 138.028 120.301 139.217 121.659C139.708 122.221 140.238 122.826 140.833 123.483C145.963 131.487 148.467 139.338 146.104 148.345Z" data-figma-gradient-fill="{&#34;type&#34;:&#34;GRADIENT_DIAMOND&#34;,&#34;stops&#34;:[{&#34;color&#34;:{&#34;r&#34;:0.95294117927551270,&#34;g&#34;:0.53333336114883423,&#34;b&#34;:0.29411765933036804,&#34;a&#34;:1.0},&#34;position&#34;:0.29807692766189575},{&#34;color&#34;:{&#34;r&#34;:0.83921569585800171,&#34;g&#34;:0.41176471114158630,&#34;b&#34;:0.16470588743686676,&#34;a&#34;:1.0},&#34;position&#34;:0.86057692766189575}],&#34;stopsVar&#34;:[{&#34;color&#34;:{&#34;r&#34;:0.95294117927551270,&#34;g&#34;:0.53333336114883423,&#34;b&#34;:0.29411765933036804,&#34;a&#34;:1.0},&#34;position&#34;:0.29807692766189575},{&#34;color&#34;:{&#34;r&#34;:0.83921569585800171,&#34;g&#34;:0.41176471114158630,&#34;b&#34;:0.16470588743686676,&#34;a&#34;:1.0},&#34;position&#34;:0.86057692766189575}],&#34;transform&#34;:{&#34;m00&#34;:6.9999990463256836,&#34;m01&#34;:-48.842113494873047,&#34;m02&#34;:151.92106628417969,&#34;m10&#34;:58.0,&#34;m11&#34;:5.8947367668151855,&#34;m12&#34;:94.552635192871094},&#34;opacity&#34;:1.0,&#34;blendMode&#34;:&#34;NORMAL&#34;,&#34;visible&#34;:true}" stroke="black" stroke-width="2"/>
<g clip-path="url(#paint4_diamond_8_51_clip_path)" data-figma-skip-parse="true"><g transform="matrix(0.00719489 0.0288177 -0.023886 0.00544015 157.506 114.297)"><rect x="0" y="0" width="1011.67" height="837.446" fill="url(#paint4_diamond_8_51)" opacity="1" shape-rendering="crispEdges"/><rect x="0" y="0" width="1011.67" height="837.446" transform="scale(1 -1)" fill="url(#paint4_diamond_8_51)" opacity="1" shape-rendering="crispEdges"/><rect x="0" y="0" width="1011.67" height="837.446" transform="scale(-1 1)" fill="url(#paint4_diamond_8_51)" opacity="1" shape-rendering="crispEdges"/><rect x="0" y="0" width="1011.67" height="837.446" transform="scale(-1)" fill="url(#paint4_diamond_8_51)" opacity="1" shape-rendering="crispEdges"/></g></g><path id="frontleg2" d="M175.31 134.756C173.448 136.013 171.02 137.432 167.541 138.144C164.003 138.869 159.306 138.878 152.941 137.137C154.678 127.18 147.712 119.659 144.07 115.727C143.879 115.521 143.698 115.325 143.527 115.139C142.78 107.976 147.859 102.214 154.822 103.144C157.814 103.544 159.692 104.339 161.363 105.485C162.588 106.325 163.686 107.335 165.042 108.581C165.602 109.096 166.206 109.651 166.882 110.252C173.008 117.787 176.508 125.441 175.31 134.756Z" data-figma-gradient-fill="{&#34;type&#34;:&#34;GRADIENT_DIAMOND&#34;,&#34;stops&#34;:[{&#34;color&#34;:{&#34;r&#34;:0.95294117927551270,&#34;g&#34;:0.53333336114883423,&#34;b&#34;:0.29411765933036804,&#34;a&#34;:1.0},&#34;position&#34;:0.29807692766189575},{&#34;color&#34;:{&#34;r&#34;:0.83921569585800171,&#34;g&#34;:0.41176471114158630,&#34;b&#34;:0.16470588743686676,&#34;a&#34;:1.0},&#34;position&#34;:0.86057692766189575}],&#34;stopsVar&#34;:[{&#34;color&#34;:{&#34;r&#34;:0.95294117927551270,&#34;g&#34;:0.53333336114883423,&#34;b&#34;:0.29411765933036804,&#34;a&#34;:1.0},&#34;position&#34;:0.29807692766189575},{&#34;color&#34;:{&#34;r&#34;:0.83921569585800171,&#34;g&#34;:0.41176471114158630,&#34;b&#34;:0.16470588743686676,&#34;a&#34;:1.0},&#34;position&#34;:0.86057692766189575}],&#34;transform&#34;:{&#34;m00&#34;:14.389785766601562,&#34;m01&#34;:-47.772083282470703,&#34;m02&#34;:174.19692993164062,&#34;m10&#34;:57.635486602783203,&#34;m11&#34;:10.880296707153320,&#34;m12&#34;:80.039535522460938},&#34;opacity&#34;:1.0,&#34;blendMode&#34;:&#34;NORMAL&#34;,&#34;visible&#34;:true}" stroke="black" stroke-width="2"/>
</g>
</g>
<defs>
<clipPath id="paint3_diamond_8_51_clip_path"><path id="frontleg1" d="M146.104 148.345C144.094 149.392 141.501 150.541 137.953 150.892C134.345 151.25 129.678 150.788 123.576 148.445C126.553 138.842 120.581 130.761 117.465 126.544C117.303 126.325 117.149 126.117 117.004 125.919C117.173 118.844 122.932 113.686 129.749 115.3C132.674 115.993 134.44 116.962 135.955 118.254C137.065 119.2 138.028 120.301 139.217 121.659C139.708 122.221 140.238 122.826 140.833 123.483C145.963 131.487 148.467 139.338 146.104 148.345Z" stroke-width="2"/></clipPath><clipPath id="paint4_diamond_8_51_clip_path"><path id="frontleg2" d="M175.31 134.756C173.448 136.013 171.02 137.432 167.541 138.144C164.003 138.869 159.306 138.878 152.941 137.137C154.678 127.18 147.712 119.659 144.07 115.727C143.879 115.521 143.698 115.325 143.527 115.139C142.78 107.976 147.859 102.214 154.822 103.144C157.814 103.544 159.692 104.339 161.363 105.485C162.588 106.325 163.686 107.335 165.042 108.581C165.602 109.096 166.206 109.651 166.882 110.252C173.008 117.787 176.508 125.441 175.31 134.756Z" stroke-width="2"/></clipPath><linearGradient id="paint0_linear_8_51" x1="115.688" y1="70.9184" x2="115.688" y2="135.969" gradientUnits="userSpaceOnUse">
<stop stop-color="#F7CDB4"/>
<stop offset="1" stop-color="#FFB082"/>
</linearGradient>
<radialGradient id="paint1_radial_8_51" cx="0" cy="0" r="1" gradientUnits="userSpaceOnUse" gradientTransform="translate(126 97.5) rotate(106.621) scale(34.9607 46.0128)">
<stop offset="0.394231" stop-color="#F3884B"/>
<stop offset="0.740385" stop-color="#D6692A"/>
</radialGradient>
<radialGradient id="paint2_radial_8_51" cx="0" cy="0" r="1" gradientUnits="userSpaceOnUse" gradientTransform="translate(57.5 46) rotate(61.3895) scale(62.6498 67.7071)">
<stop offset="0.403846" stop-color="#F3884B"/>
<stop offset="0.528846" stop-color="#D6692A"/>
</radialGradient>
<linearGradient id="paint3_diamond_8_51" x1="0" y1="0" x2="500" y2="500" gradientUnits="userSpaceOnUse">
<stop offset="0.298077" stop-color="#F3884B"/>
<stop offset="0.860577" stop-color="#D6692A"/>
</linearGradient>
<linearGradient id="paint4_diamond_8_51" x1="0" y1="0" x2="500" y2="500" gradientUnits="userSpaceOnUse">
<stop offset="0.298077" stop-color="#F3884B"/>
<stop offset="0.860577" stop-color="#D6692A"/>
</linearGradient>
</defs>
</svg>
